<svg width="111" height="34" viewBox="0 0 111 34" fill="none" xmlns="http://www.w3.org/2000/svg">
  <path d="M108.004 1.42572H2.79787C1.80493 1.42572 1 2.22971 1 3.22148V31.0557C1 32.0475 1.80493 32.8514 2.79787 32.8514H108.004C108.997 32.8514 109.802 32.0475 109.802 31.0557V3.22148C109.802 2.22971 108.997 1.42572 108.004 1.42572Z" stroke="black"/>
  <path d="M26.5319 16.3831C26.5111 13.8973 28.5705 12.6856 28.6664 12.6315C27.4991 10.9326 25.6899 10.6994 25.052 10.6827C23.5304 10.5245 22.0588 11.5905 21.2835 11.5905C20.4956 11.5905 19.3033 10.6994 18.0151 10.7244C16.3601 10.7494 14.8135 11.7071 13.9672 13.1894C12.2163 16.2166 13.5212 20.6636 15.2012 23.112C16.0391 24.3112 17.0188 25.6478 18.3028 25.602C19.5576 25.552 20.0287 24.8025 21.5419 24.8025C23.0427 24.8025 23.4846 25.602 24.7936 25.5728C26.1401 25.552 26.9905 24.3695 27.7993 23.1619C28.7706 21.7879 29.1583 20.4346 29.175 20.368C29.1416 20.3471 26.557 19.3603 26.5319 16.3831ZM24.0599 9.07132C24.7352 8.22606 25.1979 7.08099 25.0687 5.9151C24.0932 5.95672 22.8676 6.58963 22.1672 7.41411C21.5461 8.14278 20.9875 9.33363 21.1334 10.4537C22.2256 10.5328 23.3553 9.89993 24.0599 9.07132Z" fill="black"/>
  <path d="M43.8821 21.8438H42.127L41.164 18.8291H37.8248L36.9077 21.8438H35.1985L38.5085 11.5756H40.5512L43.8821 21.8438ZM40.8764 17.5633L40.0051 14.8817C39.9134 14.6069 39.7383 13.9615 39.4882 12.9455H39.459C39.3589 13.3827 39.1922 14.0281 38.9712 14.8817L38.1166 17.5633H40.8764ZM52.3783 18.0504C52.3783 19.308 52.0362 20.3031 51.3526 21.036C50.7395 21.6855 49.9768 22.0103 49.068 22.0103C48.0841 22.0103 47.3798 21.6605 46.9505 20.961V24.8459H45.3037V16.8721C45.3037 16.0809 45.283 15.269 45.2412 14.4403H46.6916L46.7838 15.6146H46.8125C47.3631 14.7318 48.1969 14.2863 49.3138 14.2863C50.1894 14.2863 50.9189 14.6319 51.5027 15.3231C52.0861 16.0143 52.3783 16.9262 52.3783 18.0504ZM50.7022 18.1129C50.7022 17.3926 50.5395 16.7971 50.2145 16.3308C49.8599 15.8436 49.3808 15.6021 48.7803 15.6021C48.3762 15.6021 48.005 15.7395 47.6755 16.006C47.3465 16.2766 47.1294 16.6306 47.0296 17.0636C46.9838 17.226 46.9586 17.3967 46.9546 17.5633V18.7999C46.9546 19.3371 47.1213 19.7909 47.4508 20.1657C47.7798 20.5363 48.2095 20.7236 48.7385 20.7236C49.3597 20.7236 49.8433 20.4822 50.1894 20.0075C50.5269 19.5245 50.7022 18.8957 50.7022 18.1129ZM60.9074 18.0504C60.9074 19.308 60.5658 20.3031 59.8817 21.036C59.2691 21.6855 58.5063 22.0103 57.5975 22.0103C56.6136 22.0103 55.9088 21.6605 55.4796 20.961V24.8459H53.8328V16.8721C53.8328 16.0809 53.8121 15.269 53.7703 14.4403H55.2212L55.3128 15.6146H55.3421C55.8922 14.7318 56.726 14.2863 57.8433 14.2863C58.7189 14.2863 59.4484 14.6319 60.0318 15.3231C60.6116 16.0143 60.9074 16.9262 60.9074 18.0504ZM59.2273 18.1129C59.2273 17.3926 59.065 16.7971 58.7396 16.3308C58.3854 15.8436 57.9058 15.6021 57.3058 15.6021C56.9013 15.6021 56.53 15.7395 56.1965 16.006C55.8675 16.2766 55.6504 16.6306 55.5506 17.0636C55.5003 17.2676 55.4715 17.4342 55.4715 17.5633V18.7999C55.4715 19.3371 55.6383 19.7909 55.9673 20.1657C56.2967 20.5363 56.726 20.7236 57.2599 20.7236C57.8807 20.7236 58.3643 20.4822 58.7104 20.0075C59.0565 19.5245 59.2273 18.8957 59.2273 18.1129ZM70.4414 18.9665C70.4414 19.8409 70.1372 20.553 69.5286 21.0984C68.8616 21.698 67.9235 21.9978 66.7271 21.9978C65.6223 21.9978 64.7346 21.7855 64.0631 21.3566L64.4424 19.9867C65.1638 20.4155 65.9598 20.6279 66.8228 20.6279C67.444 20.6279 67.9276 20.4863 68.2737 20.2073C68.6198 19.9284 68.7946 19.5536 68.7946 19.0873C68.7946 18.6709 68.649 18.3211 68.3654 18.0338C68.0817 17.7506 67.6107 17.4842 66.9482 17.2427C65.1472 16.5723 64.2465 15.5896 64.2465 14.303C64.2465 13.4618 64.5633 12.7707 65.2011 12.2335C65.8349 11.6963 66.6772 11.4257 67.7276 11.4257C68.6616 11.4257 69.4409 11.5881 70.0621 11.9129L69.6495 13.2537C69.0656 12.9372 68.4112 12.7831 67.6732 12.7831C67.0938 12.7831 66.6354 12.9247 66.31 13.2078C66.0349 13.4618 65.8973 13.77 65.8973 14.1364C65.8973 14.5403 66.056 14.8776 66.3729 15.1399C66.648 15.3814 67.1437 15.6479 67.8651 15.931C68.7488 16.2891 69.3991 16.7013 69.8162 17.1802C70.2329 17.6591 70.4414 18.2545 70.4414 18.9665ZM75.9025 15.677H74.0848V19.2705C74.0848 20.1865 74.4058 20.6404 75.048 20.6404C75.3438 20.6404 75.5856 20.6154 75.7816 20.5654L75.8274 21.8146C75.5024 21.9354 75.0773 21.9978 74.5478 21.9978C73.8974 21.9978 73.3886 21.798 73.0218 21.4024C72.6551 21.0068 72.4717 20.3406 72.4717 19.4079V15.677H71.3921V14.4445H72.4717V13.0871L74.0893 12.5999V14.4445H75.9065L75.9025 15.677ZM84.0774 18.0838C84.0774 19.2205 83.7524 20.1574 83.102 20.8861C82.4224 21.6397 81.5181 22.0145 80.3882 22.0145C79.3 22.0145 78.433 21.6522 77.7866 20.936C77.1408 20.2157 76.8198 19.3038 76.8198 18.2087C76.8198 17.0595 77.1533 16.1226 77.8204 15.3897C78.4874 14.6569 79.3836 14.2946 80.5131 14.2946C81.6013 14.2946 82.4768 14.6569 83.1353 15.3772C83.7605 16.0726 84.0774 16.9762 84.0774 18.0838ZM82.3685 18.1212C82.3685 17.4425 82.2224 16.8596 81.9262 16.3766C81.5806 15.7895 81.0884 15.4938 80.4466 15.4938C79.7877 15.4938 79.2793 15.7895 78.9373 16.3766C78.6415 16.8637 78.4954 17.455 78.4954 18.1546C78.4954 18.8333 78.6415 19.4162 78.9373 19.9034C79.2919 20.4905 79.7922 20.7861 80.434 20.7861C81.0637 20.7861 81.5554 20.4863 81.9141 19.8909C82.2184 19.3871 82.3685 18.7999 82.3685 18.1212ZM89.4346 15.8894C89.2633 15.8602 89.0885 15.8436 88.9132 15.8436C88.3338 15.8436 87.888 16.0601 87.5711 16.4973C87.296 16.8845 87.1585 17.3717 87.1585 17.9589V21.8438H85.5116V16.7721C85.5116 15.9935 85.499 15.219 85.4658 14.4403H86.9L86.958 15.8561H87.0039C87.1791 15.3689 87.4502 14.9775 87.8295 14.6819C88.1711 14.4237 88.5923 14.2863 89.0215 14.2863C89.1761 14.2863 89.3092 14.2988 89.4346 14.3155V15.8894ZM96.8009 17.7923C96.8049 18.0421 96.7838 18.292 96.7425 18.5376H91.7983C91.815 19.2705 92.0568 19.8284 92.5152 20.2157C92.9319 20.5613 93.4699 20.732 94.1329 20.732C94.8664 20.732 95.5334 20.6154 96.1339 20.3822L96.3923 21.5231C95.6916 21.8271 94.8623 21.9812 93.9077 21.9812C92.757 21.9812 91.8563 21.6439 91.1978 20.9694C90.5434 20.2948 90.2139 19.3871 90.2139 18.2503C90.2139 17.1344 90.5182 16.2058 91.1313 15.4647C91.7691 14.6735 92.6361 14.278 93.7243 14.278C94.7913 14.278 95.5999 14.6735 96.1505 15.4647C96.5798 16.0934 96.8009 16.8679 96.8009 17.7923ZM95.2291 17.3676C95.2417 16.8804 95.1334 16.4599 94.9082 16.1017C94.6246 15.6437 94.1827 15.4147 93.5948 15.4147C93.0573 15.4147 92.6195 15.6396 92.2815 16.0851C92.0064 16.439 91.8442 16.8679 91.7938 17.3634L95.2291 17.3676Z" fill="black"/>
</svg>