<svg xmlns="http://www.w3.org/2000/svg" fill="none" viewBox="0 0 60 67" height="67" width="60">
<path fill="black" d="M14.0779 63.5687C19.5326 66.6134 27.7956 66.7925 29.6127 66.7925C30.0521 66.7925 29.9677 66.7925 30.3473 66.7925C32.2136 66.7925 40.2762 66.6169 45.5025 63.6776C45.7802 63.5722 52.2999 60.9139 54.0572 49.7642L59.9689 4.34397C60.1095 3.24481 59.7686 2.13862 59.0375 1.30635C58.3065 0.477591 57.2521 0 56.145 0H3.85722C2.7501 0 1.6957 0.474079 0.964646 1.30284C0.233595 2.1316 -0.107327 3.23427 0.0297449 4.33343L5.75514 49.7291C6.86929 59.8007 13.8459 63.4528 14.0779 63.5687ZM3.85722 3.77156L56.2258 3.86287L50.3212 49.2269C48.9293 58.0413 44.3076 60.0921 43.8999 60.2747C38.7473 63.1508 30.1329 63.0139 29.9677 63.0209C29.8623 63.0104 21.0756 63.1543 15.8633 60.2467C15.6419 60.1308 10.3875 57.2793 9.50178 49.2831L3.79044 3.79965C3.81856 3.77156 3.84316 3.77156 3.85722 3.77156Z"></path>
<path fill="black" d="M46.0743 9.86279C42.65 9.50759 38.4427 9.54169 31.6733 12.3452C25.6408 14.8436 19.398 13.8805 14.2522 12.5333C12.7571 12.1419 11.2402 11.6832 9.8647 11.2673C8.94761 10.9899 8.09341 10.7316 7.35046 10.525C5.30294 9.95539 3.93315 9.72614 3.08665 9.88229L2.57324 7.09906C4.15599 6.80709 6.14115 7.25091 8.10896 7.79832C9.00766 8.04832 9.90031 8.31935 10.8223 8.5993C12.1144 8.99161 13.4641 9.40143 14.969 9.79541C19.9647 11.1033 25.4436 11.8619 30.5904 9.73042C37.8304 6.73198 42.5146 6.64817 46.3663 7.04771C47.2069 7.13491 47.9773 7.2376 48.7033 7.33436C51.3291 7.68435 53.3729 7.95675 56.0476 7.13761L56.8764 9.84374C53.5578 10.8601 50.7928 10.4836 48.0744 10.1134C47.4074 10.0226 46.7432 9.93218 46.0743 9.86279Z" clip-rule="evenodd" fill-rule="evenodd"></path>
<path fill="black" d="M15.7066 38.2075C16.2537 38.2075 16.6972 37.764 16.6972 37.2169C16.6972 36.6699 16.2537 36.2264 15.7066 36.2264C15.1596 36.2264 14.7161 36.6699 14.7161 37.2169C14.7161 37.764 15.1596 38.2075 15.7066 38.2075ZM15.7066 39.3396C16.8789 39.3396 17.8293 38.3892 17.8293 37.2169C17.8293 36.0446 16.8789 35.0943 15.7066 35.0943C14.5343 35.0943 13.584 36.0446 13.584 37.2169C13.584 38.3892 14.5343 39.3396 15.7066 39.3396Z" clip-rule="evenodd" fill-rule="evenodd"></path>
<path fill="black" d="M42.4519 20.2358C42.4519 21.877 43.7823 23.2075 45.4236 23.2075C47.0648 23.2075 48.3953 21.877 48.3953 20.2358C48.3953 18.5946 47.0648 17.2641 45.4236 17.2641C43.7823 17.2641 42.4519 18.5946 42.4519 20.2358ZM41.3198 20.2358C41.3198 22.5022 43.1571 24.3396 45.4236 24.3396C47.69 24.3396 49.5273 22.5022 49.5273 20.2358C49.5273 17.9693 47.69 16.132 45.4236 16.132C43.1571 16.132 41.3198 17.9693 41.3198 20.2358Z" clip-rule="evenodd" fill-rule="evenodd"></path>
<path fill="black" d="M20.518 45.849C22.0029 45.849 23.2067 44.6452 23.2067 43.1603C23.2067 41.6754 22.0029 40.4716 20.518 40.4716C19.0331 40.4716 17.8293 41.6754 17.8293 43.1603C17.8293 44.6452 19.0331 45.849 20.518 45.849ZM20.518 46.981C22.6282 46.981 24.3388 45.2704 24.3388 43.1603C24.3388 41.0501 22.6282 39.3395 20.518 39.3395C18.4079 39.3395 16.6973 41.0501 16.6973 43.1603C16.6973 45.2704 18.4079 46.981 20.518 46.981Z" clip-rule="evenodd" fill-rule="evenodd"></path>
<path fill="black" d="M37.6401 26.1792C37.6401 26.8826 38.2103 27.4528 38.9137 27.4528C39.6171 27.4528 40.1873 26.8826 40.1873 26.1792C40.1873 25.4758 39.6171 24.9056 38.9137 24.9056C38.2103 24.9056 37.6401 25.4758 37.6401 26.1792ZM36.508 26.1792C36.508 27.5078 37.5851 28.5849 38.9137 28.5849C40.2423 28.5849 41.3193 27.5078 41.3193 26.1792C41.3193 24.8506 40.2423 23.7736 38.9137 23.7736C37.5851 23.7736 36.508 24.8506 36.508 26.1792Z" clip-rule="evenodd" fill-rule="evenodd"></path>
<path fill="black" d="M29.4328 51.3679C29.4328 53.6343 31.2702 55.4716 33.5366 55.4716C35.8031 55.4716 37.6404 53.6343 37.6404 51.3679C37.6404 49.1014 35.8031 47.2641 33.5366 47.2641C31.2702 47.2641 29.4328 49.1014 29.4328 51.3679ZM28.3008 51.3679C28.3008 54.2595 30.6449 56.6037 33.5366 56.6037C36.4283 56.6037 38.7725 54.2595 38.7725 51.3679C38.7725 48.4762 36.4283 46.132 33.5366 46.132C30.6449 46.132 28.3008 48.4762 28.3008 51.3679Z" clip-rule="evenodd" fill-rule="evenodd"></path>
</svg>
