<svg xmlns="http://www.w3.org/2000/svg" fill="none" viewBox="0 0 61 67" height="67" width="61">
<path fill="black" d="M14.2986 63.5687C19.7533 66.6134 28.0163 66.7925 29.8334 66.7925C30.2728 66.7925 30.1884 66.7925 30.568 66.7925C32.4343 66.7925 40.4969 66.6169 45.7232 63.6776C46.0009 63.5722 52.5206 60.9139 54.278 49.7642L60.1896 4.34397C60.3302 3.24481 59.9893 2.13862 59.2582 1.30635C58.5272 0.477591 57.4728 0 56.3657 0H4.07792C2.9708 0 1.9164 0.474079 1.18535 1.30284C0.454298 2.1316 0.113376 3.23427 0.250448 4.33343L5.97584 49.7291C7.08999 59.8007 14.0666 63.4528 14.2986 63.5687ZM4.07792 3.77156L56.4465 3.86287L50.5419 49.227C49.15 58.0413 44.5283 60.0921 44.1206 60.2747C38.9681 63.1508 30.3536 63.0139 30.1884 63.0209C30.083 63.0104 21.2963 63.1543 16.084 60.2467C15.8626 60.1308 10.6082 57.2793 9.72248 49.2831L4.01114 3.79965C4.03926 3.77156 4.06386 3.77156 4.07792 3.77156Z"></path>
<path fill="black" d="M45.7102 34.9654C42.7479 34.6175 38.9693 34.637 32.1773 37.4499C26.1454 39.948 20.3287 38.9879 15.5749 37.6297C14.3841 37.2894 13.2491 36.9208 12.1931 36.5718C12.0144 36.5128 11.8384 36.4544 11.665 36.397C10.8045 36.1117 10.0077 35.8477 9.25725 35.6209C7.38649 35.0557 6.12443 34.8328 5.2888 34.987L4.77539 32.2037C6.36901 31.9098 8.24964 32.3599 10.0758 32.9117C10.8658 33.1504 11.7056 33.4288 12.5662 33.7141C12.7371 33.7707 12.9088 33.8276 13.0811 33.8845C14.1308 34.2314 15.2202 34.5849 16.3525 34.9084C20.8912 36.2052 25.9471 36.9668 31.0944 34.8351C38.3119 31.846 42.5758 31.7476 46.0403 32.1545C46.783 32.2417 47.4569 32.3438 48.091 32.4399C50.3999 32.7898 52.1833 33.0601 54.8536 32.2423L55.6823 34.9484C52.3445 35.9706 49.8469 35.584 47.4441 35.2121C46.8641 35.1223 46.2896 35.0334 45.7102 34.9654Z" clip-rule="evenodd" fill-rule="evenodd"></path>
<path fill="black" d="M13.6637 42.1698C14.2107 42.1698 14.6542 41.7263 14.6542 41.1792C14.6542 40.6321 14.2107 40.1887 13.6637 40.1887C13.1166 40.1887 12.6731 40.6321 12.6731 41.1792C12.6731 41.7263 13.1166 42.1698 13.6637 42.1698ZM13.6637 43.3019C14.836 43.3019 15.7863 42.3515 15.7863 41.1792C15.7863 40.0069 14.836 39.0566 13.6637 39.0566C12.4914 39.0566 11.541 40.0069 11.541 41.1792C11.541 42.3515 12.4914 43.3019 13.6637 43.3019Z" clip-rule="evenodd" fill-rule="evenodd"></path>
<path fill="black" d="M45.7874 42.7358C46.5689 42.7358 47.2025 42.1023 47.2025 41.3207C47.2025 40.5392 46.5689 39.9056 45.7874 39.9056C45.0059 39.9056 44.3723 40.5392 44.3723 41.3207C44.3723 42.1023 45.0059 42.7358 45.7874 42.7358ZM45.7874 43.8679C47.1942 43.8679 48.3346 42.7275 48.3346 41.3207C48.3346 39.914 47.1942 38.7736 45.7874 38.7736C44.3806 38.7736 43.2402 39.914 43.2402 41.3207C43.2402 42.7275 44.3806 43.8679 45.7874 43.8679Z" clip-rule="evenodd" fill-rule="evenodd"></path>
<path fill="black" d="M18.4751 49.8113C19.96 49.8113 21.1637 48.6076 21.1637 47.1226C21.1637 45.6377 19.96 44.434 18.4751 44.434C16.9901 44.434 15.7864 45.6377 15.7864 47.1226C15.7864 48.6076 16.9901 49.8113 18.4751 49.8113ZM18.4751 50.9434C20.5852 50.9434 22.2958 49.2328 22.2958 47.1226C22.2958 45.0125 20.5852 43.3019 18.4751 43.3019C16.3649 43.3019 14.6543 45.0125 14.6543 47.1226C14.6543 49.2328 16.3649 50.9434 18.4751 50.9434Z" clip-rule="evenodd" fill-rule="evenodd"></path>
<path fill="black" d="M27.674 55.8962C27.674 58.1627 29.5114 60 31.7778 60C34.0443 60 35.8816 58.1627 35.8816 55.8962C35.8816 53.6298 34.0443 51.7925 31.7778 51.7925C29.5114 51.7925 27.674 53.6298 27.674 55.8962ZM26.542 55.8962C26.542 58.7879 28.8861 61.1321 31.7778 61.1321C34.6695 61.1321 37.0137 58.7879 37.0137 55.8962C37.0137 53.0046 34.6695 50.6604 31.7778 50.6604C28.8861 50.6604 26.542 53.0046 26.542 55.8962Z" clip-rule="evenodd" fill-rule="evenodd"></path>
</svg>
