<svg xmlns="http://www.w3.org/2000/svg" width="111" height="33" viewBox="0 0 111 33" fill="none">
  <path d="M108.004 1H2.79787C1.80493 1 1 1.80399 1 2.79576V30.63C1 31.6217 1.80493 32.4257 2.79787 32.4257H108.004C108.997 32.4257 109.802 31.6217 109.802 30.63V2.79576C109.802 1.80399 108.997 1 108.004 1Z" stroke="black"/>
  <path d="M55.9546 14.6339C54.097 14.6339 52.6263 16.0256 52.6263 17.9586C52.6263 19.8142 54.097 21.2832 55.9546 21.2832C57.8123 21.2832 59.2834 19.8915 59.2834 17.9586C59.2834 16.0256 57.8123 14.6339 55.9546 14.6339ZM55.9546 19.8915C54.9483 19.8915 54.097 19.041 54.097 17.8812C54.097 16.7215 54.9483 15.871 55.9546 15.871C56.961 15.871 57.8123 16.6441 57.8123 17.8812C57.8123 19.1183 56.961 19.8915 55.9546 19.8915ZM48.7555 14.6339C46.8979 14.6339 45.4272 16.0256 45.4272 17.9586C45.4272 19.8142 46.8979 21.2832 48.7555 21.2832C50.6136 21.2832 52.0842 19.8915 52.0842 17.9586C52.0842 16.0256 50.6136 14.6339 48.7555 14.6339ZM48.7555 19.8915C47.7496 19.8915 46.8979 19.041 46.8979 17.8812C46.8979 16.7215 47.7496 15.871 48.7555 15.871C49.7619 15.871 50.6136 16.6441 50.6136 17.8812C50.6136 19.1183 49.7619 19.8915 48.7555 19.8915ZM40.1634 15.639V17.0307H43.4919C43.4145 17.8039 43.1049 18.4224 42.7179 18.809C42.2534 19.2729 41.4793 19.8142 40.1634 19.8142C38.0734 19.8142 36.5252 18.1905 36.5252 16.103C36.5252 14.0154 38.1508 12.3917 40.1634 12.3917C41.2471 12.3917 42.0986 12.8556 42.7179 13.3968L43.7242 12.3917C42.8727 11.6185 41.7889 11 40.2408 11C37.4541 11 35.0544 13.3195 35.0544 16.103C35.0544 18.8863 37.4541 21.2059 40.2408 21.2059C41.7889 21.2059 42.8727 20.742 43.8016 19.7368C44.7305 18.809 45.0401 17.4946 45.0401 16.4895C45.0401 16.1803 45.0401 15.871 44.9627 15.639H40.1634ZM75.3069 16.7215C74.9972 15.9483 74.2227 14.6339 72.5202 14.6339C70.8171 14.6339 69.4238 15.9483 69.4238 17.9586C69.4238 19.8142 70.8171 21.2832 72.6748 21.2832C74.1454 21.2832 75.0745 20.3554 75.3842 19.8142L74.3005 19.041C73.9135 19.5822 73.4488 19.9688 72.6748 19.9688C71.9008 19.9688 71.436 19.6595 71.0491 18.9637L75.4615 17.108L75.3069 16.7215ZM70.8171 17.8039C70.8171 16.5668 71.8235 15.871 72.5202 15.871C73.0618 15.871 73.6038 16.1803 73.7584 16.5668L70.8171 17.8039ZM67.1787 20.9739H68.6493V11.3093H67.1787V20.9739ZM64.8568 15.3297C64.4693 14.9432 63.8504 14.5566 63.076 14.5566C61.4507 14.5566 59.9023 16.0256 59.9023 17.8812C59.9023 19.7368 61.3734 21.1286 63.076 21.1286C63.8504 21.1286 64.4693 20.742 64.779 20.3554H64.8568V20.8193C64.8568 22.0563 64.1601 22.7522 63.076 22.7522C62.2247 22.7522 61.6053 22.1337 61.4507 21.5924L60.212 22.1337C60.599 22.9842 61.528 24.0666 63.1537 24.0666C64.8568 24.0666 66.2501 23.0615 66.2501 20.6647V14.7886H64.8568V15.3297ZM63.1537 19.8915C62.1474 19.8915 61.2956 19.041 61.2956 17.8812C61.2956 16.7215 62.1474 15.871 63.1537 15.871C64.1601 15.871 64.9341 16.7215 64.9341 17.8812C64.9341 19.041 64.1601 19.8915 63.1537 19.8915ZM82.0412 11.3093H78.5578V20.9739H80.0285V17.34H82.0412C83.6665 17.34 85.2149 16.1803 85.2149 14.3247C85.2149 12.469 83.6665 11.3093 82.0412 11.3093ZM82.1185 16.0256H80.0285V12.701H82.1185C83.2022 12.701 83.8216 13.6288 83.8216 14.3247C83.7443 15.0978 83.1249 16.0256 82.1185 16.0256ZM91.0207 14.6339C89.9366 14.6339 88.8529 15.0978 88.4659 16.103L89.7819 16.6441C90.0916 16.103 90.5559 15.9483 91.098 15.9483C91.872 15.9483 92.5686 16.4122 92.6459 17.1854V17.2627C92.414 17.108 91.7946 16.8761 91.1753 16.8761C89.7819 16.8761 88.3886 17.6493 88.3886 19.041C88.3886 20.3554 89.5496 21.2059 90.7883 21.2059C91.7947 21.2059 92.2589 20.742 92.6459 20.2781H92.7232V21.0512H94.1166V17.34C93.962 15.5617 92.6459 14.6339 91.0207 14.6339ZM90.8656 19.8915C90.4013 19.8915 89.7046 19.6595 89.7046 19.041C89.7046 18.2678 90.5559 18.0359 91.2526 18.0359C91.872 18.0359 92.1816 18.1905 92.5686 18.3451C92.414 19.273 91.6396 19.8915 90.8656 19.8915ZM98.9933 14.7886L97.368 18.9637H97.2907L95.5877 14.7886H94.0393L96.5941 20.6647L95.123 23.912H96.5941L100.542 14.7886H98.9933ZM85.9889 20.9739H87.4595V11.3093H85.9889V20.9739Z" fill="black"/>
  <path d="M10.9032 26.1804C10.5936 26.0258 10.4388 25.6393 10.4388 25.2527C10.4388 25.1753 10.4388 25.0207 10.4388 24.9434C10.4388 19.2219 10.4388 13.5004 10.4388 7.85629C10.4388 7.54702 10.5162 7.31509 10.5936 7.00582C10.671 6.85116 10.8258 6.69655 10.9807 6.54193C14.3092 9.86655 17.5603 13.1912 20.8114 16.5158C17.4829 19.6085 14.2318 22.8558 10.9032 26.1804Z" fill="black"/>
  <path d="M24.0624 13.1139C23.1335 14.0417 22.1272 14.9695 21.1983 15.9746C18.102 12.8046 14.9283 9.63458 11.832 6.46458C11.832 6.46458 11.832 6.38727 11.9094 6.38727C15.9346 8.62945 19.9598 10.8717 24.0624 13.1139Z" fill="black"/>
  <path d="M11.832 26.1804C14.9283 23.0878 18.102 19.9951 21.1983 16.9024C22.0498 17.7529 22.9787 18.6034 23.985 19.5312C19.9598 21.7734 15.9346 24.0156 11.9094 26.1804H11.832Z" fill="black"/>
  <path d="M24.5272 19.2219C23.5209 18.2941 22.592 17.3663 21.5857 16.4385C22.592 15.4334 23.5983 14.4282 24.6046 13.4231C24.9143 13.5777 25.2239 13.7324 25.5335 13.9643C26.3076 14.4282 27.1591 14.8148 27.9332 15.2787C28.1654 15.356 28.3202 15.5107 28.475 15.7426C28.7847 16.1292 28.7847 16.5158 28.475 16.9024C28.3202 17.057 28.1654 17.2116 27.9332 17.289C26.8495 17.9848 25.6884 18.6034 24.5272 19.2219Z" fill="black"/>
</svg>
