<svg xmlns="http://www.w3.org/2000/svg" fill="none" viewBox="0 0 60 67" height="67" width="60">
<path fill="black" d="M14.0779 63.5687C19.5326 66.6134 27.7956 66.7925 29.6127 66.7925C30.0521 66.7925 29.9677 66.7925 30.3473 66.7925C32.2136 66.7925 40.2762 66.6169 45.5025 63.6776C45.7802 63.5722 52.2999 60.9139 54.0572 49.7642L59.9689 4.34397C60.1095 3.24481 59.7686 2.13862 59.0375 1.30635C58.3065 0.477591 57.2521 0 56.145 0H3.85722C2.7501 0 1.6957 0.474079 0.964646 1.30284C0.233595 2.1316 -0.107327 3.23427 0.0297449 4.33343L5.75514 49.7291C6.86929 59.8007 13.8459 63.4528 14.0779 63.5687ZM3.85722 3.77156L56.2258 3.86287L50.3212 49.2269C48.9293 58.0413 44.3076 60.0921 43.8999 60.2747C38.7473 63.1508 30.1329 63.0139 29.9677 63.0209C29.8623 63.0104 21.0756 63.1543 15.8633 60.2467C15.6419 60.1308 10.3875 57.2793 9.50178 49.2831L3.79044 3.79965C3.81856 3.77156 3.84316 3.77156 3.85722 3.77156Z"></path>
<path fill="black" d="M46.3575 19.9675C42.9332 19.6123 38.7259 19.6464 31.9565 22.4499C25.924 24.9483 19.6812 23.9852 14.5354 22.638C13.0403 22.2466 11.5234 21.7879 10.1479 21.3719C9.23081 21.0946 8.37661 20.8363 7.63366 20.6296C5.58614 20.0601 4.21635 19.8308 3.36986 19.987L2.85645 17.2037C4.43919 16.9118 6.42436 17.3556 8.39217 17.903C9.29086 18.153 10.1835 18.424 11.1055 18.704C12.3976 19.0963 13.7474 19.5061 15.2522 19.9001C20.2479 21.208 25.7268 21.9666 30.8736 19.8351C38.1136 16.8367 42.7978 16.7528 46.6495 17.1524C47.4901 17.2396 48.2605 17.3423 48.9865 17.439C51.6123 17.789 53.6561 18.0614 56.3308 17.2423L57.1596 19.9484C53.841 20.9647 51.076 20.5883 48.3576 20.2181C47.6906 20.1273 47.0264 20.0369 46.3575 19.9675Z" clip-rule="evenodd" fill-rule="evenodd"></path>
<path fill="black" d="M14.5758 40.4717C15.1228 40.4717 15.5663 40.0282 15.5663 39.4812C15.5663 38.9341 15.1228 38.4906 14.5758 38.4906C14.0287 38.4906 13.5852 38.9341 13.5852 39.4812C13.5852 40.0282 14.0287 40.4717 14.5758 40.4717ZM14.5758 41.6038C15.7481 41.6038 16.6984 40.6535 16.6984 39.4812C16.6984 38.3089 15.7481 37.3585 14.5758 37.3585C13.4035 37.3585 12.4531 38.3089 12.4531 39.4812C12.4531 40.6535 13.4035 41.6038 14.5758 41.6038Z" clip-rule="evenodd" fill-rule="evenodd"></path>
<path fill="black" d="M42.1696 27.8773C42.1696 29.5186 43.5001 30.849 45.1413 30.849C46.7826 30.849 48.113 29.5186 48.113 27.8773C48.113 26.2361 46.7826 24.9056 45.1413 24.9056C43.5001 24.9056 42.1696 26.2361 42.1696 27.8773ZM41.0376 27.8773C41.0376 30.1438 42.8749 31.9811 45.1413 31.9811C47.4078 31.9811 49.2451 30.1438 49.2451 27.8773C49.2451 25.6109 47.4078 23.7736 45.1413 23.7736C42.8749 23.7736 41.0376 25.6109 41.0376 27.8773Z" clip-rule="evenodd" fill-rule="evenodd"></path>
<path fill="black" d="M19.3872 48.1132C20.8721 48.1132 22.0758 46.9094 22.0758 45.4245C22.0758 43.9396 20.8721 42.7358 19.3872 42.7358C17.9022 42.7358 16.6985 43.9396 16.6985 45.4245C16.6985 46.9094 17.9022 48.1132 19.3872 48.1132ZM19.3872 49.2453C21.4973 49.2453 23.2079 47.5347 23.2079 45.4245C23.2079 43.3144 21.4973 41.6038 19.3872 41.6038C17.277 41.6038 15.5664 43.3144 15.5664 45.4245C15.5664 47.5347 17.277 49.2453 19.3872 49.2453Z" clip-rule="evenodd" fill-rule="evenodd"></path>
<path fill="black" d="M37.3588 33.8208C37.3588 34.5241 37.929 35.0943 38.6324 35.0943C39.3358 35.0943 39.906 34.5241 39.906 33.8208C39.906 33.1174 39.3358 32.5472 38.6324 32.5472C37.929 32.5472 37.3588 33.1174 37.3588 33.8208ZM36.2268 33.8208C36.2268 35.1494 37.3038 36.2264 38.6324 36.2264C39.961 36.2264 41.0381 35.1494 41.0381 33.8208C41.0381 32.4922 39.961 31.4151 38.6324 31.4151C37.3038 31.4151 36.2268 32.4922 36.2268 33.8208Z" clip-rule="evenodd" fill-rule="evenodd"></path>
<path fill="black" d="M28.5852 54.1981C28.5852 56.4646 30.4225 58.3019 32.689 58.3019C34.9554 58.3019 36.7927 56.4646 36.7927 54.1981C36.7927 51.9317 34.9554 50.0944 32.689 50.0944C30.4225 50.0944 28.5852 51.9317 28.5852 54.1981ZM27.4531 54.1981C27.4531 57.0898 29.7973 59.434 32.689 59.434C35.5806 59.434 37.9248 57.0898 37.9248 54.1981C37.9248 51.3064 35.5806 48.9623 32.689 48.9623C29.7973 48.9623 27.4531 51.3064 27.4531 54.1981Z" clip-rule="evenodd" fill-rule="evenodd"></path>
</svg>
