<svg xmlns="http://www.w3.org/2000/svg" class="icon icon--header-cart   " width="20" height="20" viewBox="0 0 20 20" fill="none">
      <path d="M3.50123 5.79004L3.00123 16.93C2.99182 17.1985 3.0366 17.4661 3.13289 17.7169C3.22919 17.9677 3.37501 18.1965 3.56168 18.3897C3.74834 18.5829 3.97201 18.7365 4.21934 18.8414C4.46667 18.9462 4.73259 19.0002 5.00123 19H15.6912C15.9599 19.0002 16.2258 18.9462 16.4731 18.8414C16.7204 18.7365 16.9441 18.5829 17.1308 18.3897C17.3174 18.1965 17.4633 17.9677 17.5596 17.7169C17.6558 17.4661 17.7006 17.1985 17.6912 16.93L17.1612 5.79004H3.50123Z" stroke="black" stroke-width="1.5" stroke-linecap="round" stroke-linejoin="round"></path>
      <path d="M6.76123 7.18V4.58C6.76123 3.63052 7.13841 2.71994 7.80979 2.04856C8.48117 1.37718 9.39176 1 10.3412 1V1C11.2907 1 12.2013 1.37718 12.8727 2.04856C13.5441 2.71994 13.9212 3.63052 13.9212 4.58V7.18" stroke="black" stroke-width="1.5" stroke-linecap="round" stroke-linejoin="round"></path>
    </svg>
